# xmcd CD database file
#
# Track frame offsets:
#	150
#	20207
#	39467
#
# Disc length: 792 seconds
#
# Revision: 0
# Processed by: cddbd v1.5.1PL0 Copyright (c) Steve Scherf et al.
# Submitted via: CDex 1.51
#
DISCID=20031603
DTITLE=吉川晃司 - RUNAWAY
DYEAR=1997
DGENRE=Japanese Rock
TTITLE0=RUNAWAY
TTITLE1=SOLITUDE
TTITLE2=RUNAWAY(ORIGINAL KARAOKE)
EXTD=YEAR: 1997
EXTT0=
EXTT1=
EXTT2=
PLAYORDER=
